<svg width="189" height="48" viewBox="0 0 189 48" fill="none" xmlns="http://www.w3.org/2000/svg">
<g clip-path="url(#clip0_652_1754)">
<path d="M32.6562 7.31494L43.6119 7.45796L43.7372 3.04745L32.7322 1.65968L22.8288 0.409623C22.0325 0.308983 21.2292 0.254249 20.4258 0.243655L-0.00585938 0L0.492044 6.02957L21.6317 7.17016L32.6562 7.31494Z" fill="url(#paint0_linear_652_1754)"/>
<path d="M18.8372 47.6823C20.5957 48.2826 22.5326 48.016 24.0652 46.9654L32.1994 41.3825L32.2753 35.7432L23.7262 40.505C22.3843 41.2519 20.8023 41.4337 19.3263 41.0118L2.99609 36.3311L3.50106 42.4454L18.8372 47.6805V47.6823Z" fill="url(#paint1_linear_652_1754)"/>
<path d="M19.7128 20.7212C20.9823 20.9013 22.2729 20.8554 23.5248 20.5835L32.5047 18.6289L43.365 16.2648L43.4903 11.7695L32.5806 12.9242L23.8285 13.8512C22.3665 14.0066 20.894 14.0066 19.4321 13.8565L0.990234 12.0679L1.4899 18.1222L19.711 20.7212H19.7128Z" fill="url(#paint2_linear_652_1754)"/>
<path d="M19.3445 34.2689C20.8276 34.622 22.3848 34.4755 23.7762 33.8505L32.3517 29.9979L43.1114 25.1654L43.2297 20.9297L32.4241 24.4168L24.6342 26.931C22.6621 27.5666 20.5627 27.6991 18.527 27.3142L1.99023 24.1819L2.49167 30.2557L19.3409 34.2671L19.3445 34.2689Z" fill="url(#paint3_linear_652_1754)"/>
</g>
<path d="M65.5222 30.5V17.16H75.9422C77.6622 17.16 78.3822 17.22 79.0022 17.42C80.6622 17.92 81.2422 19.04 81.2422 21.72C81.2422 23.76 80.9222 24.88 80.1022 25.58C79.4022 26.2 78.3822 26.42 76.3022 26.42H68.5822V30.5H65.5222ZM68.5822 23.94H75.4422C77.5822 23.94 78.1422 23.52 78.1422 21.88C78.1422 20.08 77.6422 19.64 75.5822 19.64H68.5822V23.94ZM84.0964 30.5V17.16H87.1764V22.46H97.6964V17.16H100.776V30.5H97.6964V24.94H87.1764V30.5H84.0964ZM112.298 23.04L117.498 17.16H121.418L113.818 25.48V30.5H110.738V25.48L103.078 17.16H107.058L112.298 23.04ZM130.882 23.36H139.822V24.78C139.822 27.22 139.682 28.1 139.202 28.98C138.802 29.7 138.142 30.14 137.102 30.4C136.382 30.58 135.242 30.62 131.222 30.62C127.682 30.62 125.962 30.5 125.142 30.18C123.862 29.7 123.202 28.92 122.922 27.5C122.762 26.74 122.702 25.86 122.702 23.96C122.702 20.44 122.922 19.32 123.782 18.38C124.342 17.78 125.122 17.42 126.182 17.28C127.422 17.1 128.842 17.04 132.762 17.04C136.662 17.04 138.062 17.32 138.902 18.28C139.482 18.92 139.762 19.96 139.762 21.44H136.742C136.722 20.6 136.622 20.28 136.242 19.98C135.722 19.56 135.042 19.48 132.442 19.48C127.622 19.48 126.882 19.56 126.362 20.18C125.942 20.66 125.802 21.54 125.802 23.62C125.802 26.22 125.962 27.12 126.522 27.6C127.102 28.12 127.862 28.22 131.482 28.22C135.442 28.22 135.862 28.14 136.462 27.28C136.722 26.94 136.822 26.3 136.822 25.38H130.882V23.36ZM143.042 30.5V17.16H154.342C156.682 17.16 157.742 17.44 158.462 18.22C159.042 18.86 159.322 19.9 159.322 21.42C159.322 22.88 159.142 23.7 158.742 24.2C158.342 24.7 157.862 24.94 157.062 25.08C158.742 25.22 159.122 25.74 159.102 27.86V30.5H156.002V28.5C155.962 26.68 155.542 26.32 153.522 26.34H146.102V30.5H143.042ZM146.102 23.88H153.422C155.662 23.88 156.222 23.48 156.222 21.88C156.222 20.04 155.762 19.66 153.482 19.66H146.102V23.88ZM162.612 30.5V17.16H165.692V30.5H162.612ZM169.272 30.5V17.16H180.352C182.892 17.16 184.532 17.64 185.432 18.62C186.252 19.54 186.572 21.04 186.572 23.98C186.572 26.96 186.192 28.42 185.172 29.36C184.332 30.14 182.912 30.5 180.672 30.5H169.272ZM172.352 28.06H179.992C181.072 28.06 181.812 27.92 182.352 27.62C183.132 27.2 183.452 26.18 183.452 24.12C183.452 20.42 182.872 19.68 179.992 19.68H172.352V28.06Z" fill="white"/>
<defs>
<linearGradient id="paint0_linear_652_1754" x1="-5.308" y1="3.72898" x2="43.7372" y2="3.72898" gradientUnits="userSpaceOnUse">
<stop stop-color="white"/>
<stop offset="0.53" stop-color="white"/>
<stop offset="1" stop-color="white" stop-opacity="0"/>
</linearGradient>
<linearGradient id="paint1_linear_652_1754" x1="-2.42964" y1="41.8716" x2="32.2753" y2="41.8716" gradientUnits="userSpaceOnUse">
<stop stop-color="white"/>
<stop offset="0.69" stop-color="white"/>
<stop offset="1" stop-color="white" stop-opacity="0"/>
</linearGradient>
<linearGradient id="paint2_linear_652_1754" x1="-4.34898" y1="16.2983" x2="43.4903" y2="16.2983" gradientUnits="userSpaceOnUse">
<stop stop-color="white"/>
<stop offset="0.53" stop-color="white"/>
<stop offset="1" stop-color="white" stop-opacity="0"/>
</linearGradient>
<linearGradient id="paint3_linear_652_1754" x1="-3.38783" y1="27.6938" x2="43.2315" y2="27.6938" gradientUnits="userSpaceOnUse">
<stop stop-color="white"/>
<stop offset="0.53" stop-color="white"/>
<stop offset="1" stop-color="white" stop-opacity="0"/>
</linearGradient>
<clipPath id="clip0_652_1754">
<rect width="43.7431" height="48" fill="white"/>
</clipPath>
</defs>
</svg>
